# xmcd CD database file
#
# Track frame offsets:
#	182
#	42375
#	97025
#	135260
#	156552
#
# Disc length: 2440 seconds
#
# Revision: 0
# Processed by: cddbd v1.5.1PL2 Copyright (c) Steve Scherf et al.
# Submitted via: CDex 1.51
#
DISCID=3e098605
DTITLE=Vic Dickenson  - Vic Dickenson Septet
DYEAR=1953
DGENRE=Jazz
TTITLE0=Russian Lullaby
TTITLE1=Jeepers Creepers
TTITLE2=I Cover The Waterfront
TTITLE3=Sir Charles At Home
TTITLE4=Keeping Out Of Mischief Now
EXTD=YEAR: 1953
EXTT0=
EXTT1=
EXTT2=
EXTT3=
EXTT4=
PLAYORDER=
